<mxfile host="app.diagrams.net" modified="2023-07-28T10:11:32.922Z" agent="Mozilla/5.0 (Windows NT 10.0; Win64; x64; rv:109.0) Gecko/20100101 Firefox/115.0" etag="m4Fcl1mAn_EaeHYfsC4g" version="21.6.5" type="device">
  <diagram id="JZ3UeF80VItJE42-G8gL" name="Page-1">
    <mxGraphModel dx="2591" dy="1024" grid="1" gridSize="10" guides="1" tooltips="1" connect="1" arrows="1" fold="1" page="1" pageScale="1" pageWidth="827" pageHeight="1169" math="1" shadow="0">
      <root>
        <mxCell id="0" />
        <mxCell id="1" parent="0" />
        <mxCell id="ZwlajOph8Y5krOQgLipj-4" value="" style="verticalLabelPosition=bottom;html=1;verticalAlign=top;align=center;strokeColor=#82b366;fillColor=#d5e8d4;shape=mxgraph.azure.user;" parent="1" vertex="1">
          <mxGeometry y="340" width="85.5" height="90" as="geometry" />
        </mxCell>
        <mxCell id="ZwlajOph8Y5krOQgLipj-5" value="" style="endArrow=block;startArrow=none;html=1;startFill=0;strokeWidth=5;shape=flexArrow;fillColor=#d5e8d4;strokeColor=#82b366;" parent="1" edge="1">
          <mxGeometry width="100" height="100" relative="1" as="geometry">
            <mxPoint x="125" y="340" as="sourcePoint" />
            <mxPoint x="740" y="340" as="targetPoint" />
          </mxGeometry>
        </mxCell>
        <mxCell id="ZwlajOph8Y5krOQgLipj-6" value="&lt;font style=&quot;font-size: 18px;&quot;&gt;&lt;b style=&quot;font-size: 18px;&quot;&gt;Ventilation&lt;/b&gt;&lt;/font&gt;" style="rounded=1;whiteSpace=wrap;html=1;fillColor=#f8cecc;strokeColor=#b85450;fontSize=18;" parent="1" vertex="1">
          <mxGeometry x="160" y="219" width="100" height="30" as="geometry" />
        </mxCell>
        <mxCell id="ZwlajOph8Y5krOQgLipj-14" value="T0" style="rounded=0;orthogonalLoop=1;jettySize=auto;html=1;exitX=0;exitY=1;exitDx=0;exitDy=0;fontSize=18;startArrow=none;startFill=0;endArrow=none;strokeWidth=1;endFill=0;fillColor=#f5f5f5;strokeColor=#666666;labelPosition=right;verticalLabelPosition=middle;align=left;verticalAlign=middle;" parent="1" source="ZwlajOph8Y5krOQgLipj-7" edge="1">
          <mxGeometry relative="1" as="geometry">
            <mxPoint x="160" y="330" as="targetPoint" />
          </mxGeometry>
        </mxCell>
        <mxCell id="ZwlajOph8Y5krOQgLipj-7" value="Kidney failure" style="rounded=1;whiteSpace=wrap;html=1;fillColor=#dae8fc;strokeColor=#6c8ebf;fontStyle=1;fontSize=18;" parent="1" vertex="1">
          <mxGeometry x="160" y="260" width="130" height="30" as="geometry" />
        </mxCell>
        <mxCell id="ZwlajOph8Y5krOQgLipj-8" value="Hypotension" style="rounded=1;whiteSpace=wrap;html=1;fillColor=#dae8fc;strokeColor=#6c8ebf;fontStyle=1;fontSize=18;" parent="1" vertex="1">
          <mxGeometry x="320" y="220" width="120" height="30" as="geometry" />
        </mxCell>
        <mxCell id="ZwlajOph8Y5krOQgLipj-9" value="SOFA=12" style="rounded=1;whiteSpace=wrap;html=1;fillColor=#dae8fc;strokeColor=#6c8ebf;fontStyle=1;fontSize=18;" parent="1" vertex="1">
          <mxGeometry x="320" y="260" width="80" height="30" as="geometry" />
        </mxCell>
        <mxCell id="ZwlajOph8Y5krOQgLipj-10" value="SpO2=92%" style="rounded=1;whiteSpace=wrap;html=1;fillColor=#ffe6cc;strokeColor=#d79b00;fontStyle=1;fontSize=18;" parent="1" vertex="1">
          <mxGeometry x="409" y="260" width="103" height="30" as="geometry" />
        </mxCell>
        <mxCell id="ZwlajOph8Y5krOQgLipj-11" value="Vasopressors" style="rounded=1;whiteSpace=wrap;html=1;fillColor=#bac8d3;strokeColor=#23445d;fontStyle=1;fontSize=18;" parent="1" vertex="1">
          <mxGeometry x="536" y="220" width="127" height="30" as="geometry" />
        </mxCell>
        <mxCell id="ZwlajOph8Y5krOQgLipj-12" value="Crystalloids" style="rounded=1;whiteSpace=wrap;html=1;fillColor=#bac8d3;strokeColor=#23445d;fontStyle=1;fontSize=18;" parent="1" vertex="1">
          <mxGeometry x="536" y="260" width="107" height="30" as="geometry" />
        </mxCell>
        <mxCell id="ZwlajOph8Y5krOQgLipj-18" value="T1" style="rounded=0;orthogonalLoop=1;jettySize=auto;html=1;exitX=0;exitY=1;exitDx=0;exitDy=0;fontSize=18;startArrow=none;startFill=0;endArrow=none;strokeWidth=1;endFill=0;fillColor=#f5f5f5;strokeColor=#666666;labelPosition=right;verticalLabelPosition=middle;align=left;verticalAlign=middle;" parent="1" source="ZwlajOph8Y5krOQgLipj-9" edge="1">
          <mxGeometry relative="1" as="geometry">
            <mxPoint x="320" y="330" as="targetPoint" />
            <mxPoint x="170" y="300" as="sourcePoint" />
          </mxGeometry>
        </mxCell>
        <mxCell id="ZwlajOph8Y5krOQgLipj-19" value="T2" style="rounded=0;orthogonalLoop=1;jettySize=auto;html=1;fontSize=18;startArrow=none;startFill=0;endArrow=none;strokeWidth=1;endFill=0;fillColor=#f5f5f5;strokeColor=#666666;labelPosition=right;verticalLabelPosition=middle;align=left;verticalAlign=middle;exitX=0;exitY=1;exitDx=0;exitDy=0;" parent="1" source="ZwlajOph8Y5krOQgLipj-10" edge="1">
          <mxGeometry relative="1" as="geometry">
            <mxPoint x="409" y="330" as="targetPoint" />
            <mxPoint x="399" y="310" as="sourcePoint" />
          </mxGeometry>
        </mxCell>
        <mxCell id="ZwlajOph8Y5krOQgLipj-20" value="&lt;font style=&quot;font-size: 18px;&quot;&gt;Glucose=4.5mmol/L&lt;/font&gt;" style="rounded=1;whiteSpace=wrap;html=1;fillColor=#ffe6cc;strokeColor=#d79b00;fontStyle=1;fontSize=18;" parent="1" vertex="1">
          <mxGeometry x="320" y="178" width="190" height="30" as="geometry" />
        </mxCell>
        <mxCell id="ZwlajOph8Y5krOQgLipj-21" value="Anna&lt;br&gt;&lt;font style=&quot;font-size: 13px;&quot;&gt;Age = 54&lt;br&gt;Gender = Female&lt;br&gt;Insurance Status = RG&lt;br&gt;Residency = Le Havre&lt;br&gt;&lt;/font&gt;" style="rounded=1;whiteSpace=wrap;html=1;fillColor=#d5e8d4;strokeColor=#82b366;fontStyle=1;fontSize=22;labelPosition=center;verticalLabelPosition=middle;align=center;verticalAlign=middle;" parent="1" vertex="1">
          <mxGeometry x="-20" y="170" width="150" height="160" as="geometry" />
        </mxCell>
        <mxCell id="ZwlajOph8Y5krOQgLipj-24" value="T3" style="rounded=0;orthogonalLoop=1;jettySize=auto;html=1;fontSize=18;startArrow=none;startFill=0;endArrow=none;strokeWidth=1;endFill=0;fillColor=#f5f5f5;strokeColor=#666666;labelPosition=right;verticalLabelPosition=middle;align=left;verticalAlign=middle;exitX=0;exitY=1;exitDx=0;exitDy=0;" parent="1" source="ZwlajOph8Y5krOQgLipj-12" edge="1">
          <mxGeometry relative="1" as="geometry">
            <mxPoint x="536" y="330" as="targetPoint" />
            <mxPoint x="426" y="300" as="sourcePoint" />
          </mxGeometry>
        </mxCell>
        <mxCell id="ZwlajOph8Y5krOQgLipj-29" value="&lt;br style=&quot;font-size: 22px&quot;&gt;&lt;font style=&quot;font-size: 20px&quot;&gt;Inpatient mortality = &lt;/font&gt;&lt;font style=&quot;font-size: 20px&quot;&gt;`Y_1`&lt;/font&gt;&lt;br&gt;&lt;font style=&quot;font-size: 20px&quot;&gt;&lt;br&gt;&lt;/font&gt;" style="rounded=1;whiteSpace=wrap;html=1;fillColor=#dae8fc;strokeColor=#6c8ebf;fontStyle=1;fontSize=22;" parent="1" vertex="1">
          <mxGeometry x="840" y="270" width="240" height="45" as="geometry" />
        </mxCell>
        <mxCell id="ZwlajOph8Y5krOQgLipj-30" value="" style="endArrow=block;html=1;fontSize=20;strokeWidth=5;entryX=0;entryY=0.5;entryDx=0;entryDy=0;fillColor=#dae8fc;strokeColor=#6c8ebf;endFill=1;fontStyle=1;labelPosition=center;verticalLabelPosition=top;align=center;verticalAlign=bottom;fontColor=#6C8EBF;edgeStyle=orthogonalEdgeStyle;" parent="1" target="ZwlajOph8Y5krOQgLipj-29" edge="1">
          <mxGeometry width="50" height="50" relative="1" as="geometry">
            <mxPoint x="750" y="330" as="sourcePoint" />
            <mxPoint x="460" y="160" as="targetPoint" />
          </mxGeometry>
        </mxCell>
        <mxCell id="ZwlajOph8Y5krOQgLipj-36" value="&lt;b&gt;A = 1&lt;br&gt;&lt;/b&gt;" style="edgeLabel;html=1;align=center;verticalAlign=middle;resizable=0;points=[];fontSize=20;fontColor=#6C8EBF;" parent="ZwlajOph8Y5krOQgLipj-30" vertex="1" connectable="0">
          <mxGeometry x="0.0367" y="-1" relative="1" as="geometry">
            <mxPoint x="-37" y="-3" as="offset" />
          </mxGeometry>
        </mxCell>
        <mxCell id="ZwlajOph8Y5krOQgLipj-31" value="" style="endArrow=block;html=1;fontSize=14;strokeWidth=5;fillColor=#ffe6cc;strokeColor=#d79b00;endFill=1;entryX=0;entryY=0.5;entryDx=0;entryDy=0;edgeStyle=orthogonalEdgeStyle;" parent="1" target="4NP-2xNYw2cOGHexUTLl-1" edge="1">
          <mxGeometry width="50" height="50" relative="1" as="geometry">
            <mxPoint x="750.21" y="347.08" as="sourcePoint" />
            <mxPoint x="839.4900000000002" y="338.9800000000001" as="targetPoint" />
          </mxGeometry>
        </mxCell>
        <mxCell id="ZwlajOph8Y5krOQgLipj-37" value="&lt;b&gt;&lt;font color=&quot;#D79B00&quot;&gt;A = 0&lt;/font&gt;&lt;/b&gt;" style="edgeLabel;html=1;align=center;verticalAlign=middle;resizable=0;points=[];fontSize=20;fontColor=#6C8EBF;" parent="ZwlajOph8Y5krOQgLipj-31" vertex="1" connectable="0">
          <mxGeometry x="0.249" y="-3" relative="1" as="geometry">
            <mxPoint x="-33" y="-14" as="offset" />
          </mxGeometry>
        </mxCell>
        <mxCell id="ZwlajOph8Y5krOQgLipj-42" value="Inclusion date&lt;font style=&quot;font-size: 26px;&quot;&gt;&lt;span style=&quot;font-size: 26px;&quot;&gt;&lt;br style=&quot;font-size: 26px;&quot;&gt;&lt;/span&gt;&lt;/font&gt;" style="shape=image;html=1;verticalAlign=bottom;verticalLabelPosition=top;labelBackgroundColor=#ffffff;imageAspect=0;aspect=fixed;image=https://cdn0.iconfinder.com/data/icons/business-and-management-glyph-1/24/CALENDER_date_event_daedline-128.png;fontSize=26;labelPosition=center;align=center;fontStyle=1" parent="1" vertex="1">
          <mxGeometry x="680" y="208" width="62" height="62" as="geometry" />
        </mxCell>
        <mxCell id="zMKHu1lxx9QXwwlugVaG-1" value="&lt;div&gt;&lt;b&gt;&lt;font style=&quot;font-size: 25px;&quot;&gt;Covariates X &lt;i&gt;&lt;br&gt;&lt;/i&gt;&lt;/font&gt;&lt;font style=&quot;font-size: 18px;&quot;&gt;&lt;i&gt;demographics, biology, comorbidities, procedures...&lt;/i&gt;&lt;/font&gt;&lt;/b&gt;&lt;/div&gt;" style="text;html=1;strokeColor=none;fillColor=none;align=center;verticalAlign=middle;whiteSpace=wrap;rounded=0;" parent="1" vertex="1">
          <mxGeometry x="81" y="350" width="636" height="70" as="geometry" />
        </mxCell>
        <mxCell id="zMKHu1lxx9QXwwlugVaG-2" value="&lt;font&gt;💊 &lt;font style=&quot;font-size: 28px;&quot;&gt;&lt;b style=&quot;font-size: 28px;&quot;&gt;Intervention A&lt;br style=&quot;font-size: 28px;&quot;&gt;&lt;/b&gt;&lt;/font&gt;&lt;/font&gt;" style="text;html=1;strokeColor=none;fillColor=none;align=center;verticalAlign=middle;whiteSpace=wrap;rounded=0;fontSize=28;fontColor=#000000;" parent="1" vertex="1">
          <mxGeometry x="560.5" y="416" width="243" height="30" as="geometry" />
        </mxCell>
        <mxCell id="zMKHu1lxx9QXwwlugVaG-3" value="" style="rounded=0;orthogonalLoop=1;jettySize=auto;html=1;fontSize=11;startArrow=none;startFill=0;endArrow=none;strokeWidth=1;endFill=0;fillColor=#f5f5f5;strokeColor=#666666;labelPosition=right;verticalLabelPosition=middle;align=left;verticalAlign=middle;entryX=0.507;entryY=0.087;entryDx=0;entryDy=0;entryPerimeter=0;" parent="1" edge="1" target="zMKHu1lxx9QXwwlugVaG-2">
          <mxGeometry x="-1" y="79" relative="1" as="geometry">
            <mxPoint x="683" y="431" as="targetPoint" />
            <mxPoint x="683" y="350" as="sourcePoint" />
            <mxPoint x="-41" y="-69" as="offset" />
          </mxGeometry>
        </mxCell>
        <mxCell id="zMKHu1lxx9QXwwlugVaG-4" style="edgeStyle=orthogonalEdgeStyle;rounded=0;orthogonalLoop=1;jettySize=auto;html=1;exitX=0.5;exitY=1;exitDx=0;exitDy=0;" parent="1" source="zMKHu1lxx9QXwwlugVaG-1" target="zMKHu1lxx9QXwwlugVaG-1" edge="1">
          <mxGeometry relative="1" as="geometry" />
        </mxCell>
        <mxCell id="zMKHu1lxx9QXwwlugVaG-5" value="&lt;font style=&quot;font-size: 28px;&quot;&gt;&lt;b style=&quot;font-size: 28px;&quot;&gt;📈 &lt;/b&gt;&lt;/font&gt;&lt;font style=&quot;font-size: 28px;&quot;&gt;&lt;b style=&quot;font-size: 28px;&quot;&gt;Outcome Y&lt;/b&gt;&lt;/font&gt;&lt;font style=&quot;font-size: 28px;&quot;&gt;&lt;b style=&quot;font-size: 28px;&quot;&gt;&lt;br style=&quot;font-size: 28px;&quot;&gt;&lt;/b&gt;&lt;/font&gt;" style="text;html=1;strokeColor=none;fillColor=none;align=center;verticalAlign=middle;whiteSpace=wrap;rounded=0;fontSize=28;fontColor=#B5739D;" parent="1" vertex="1">
          <mxGeometry x="827" y="401" width="243" height="30" as="geometry" />
        </mxCell>
        <mxCell id="4NP-2xNYw2cOGHexUTLl-1" value="&lt;br style=&quot;font-size: 22px&quot;&gt;&lt;font style=&quot;font-size: 20px&quot;&gt;Inpatient mortality = &lt;/font&gt;&lt;font style=&quot;font-size: 20px&quot;&gt;`Y_0`&lt;/font&gt;&lt;br&gt;&lt;font style=&quot;font-size: 20px&quot;&gt;&lt;br&gt;&lt;/font&gt;" style="rounded=1;whiteSpace=wrap;html=1;fillColor=#ffe6cc;strokeColor=#d79b00;fontStyle=1;fontSize=22;" parent="1" vertex="1">
          <mxGeometry x="840" y="350" width="240" height="45" as="geometry" />
        </mxCell>
        <mxCell id="gOD3TITTg5a4lvsVgRs9-2" value="" style="rounded=0;orthogonalLoop=1;jettySize=auto;html=1;fontSize=11;startArrow=none;startFill=0;endArrow=none;strokeWidth=1;endFill=0;fillColor=#f5f5f5;strokeColor=#666666;labelPosition=right;verticalLabelPosition=middle;align=left;verticalAlign=middle;exitX=0.371;exitY=0.966;exitDx=0;exitDy=0;exitPerimeter=0;" edge="1" parent="1">
          <mxGeometry x="-1" y="79" relative="1" as="geometry">
            <mxPoint x="703" y="330" as="targetPoint" />
            <mxPoint x="703.002" y="267.892" as="sourcePoint" />
            <mxPoint x="-41" y="-69" as="offset" />
          </mxGeometry>
        </mxCell>
      </root>
    </mxGraphModel>
  </diagram>
</mxfile>
